HIERARCHY
ROOT mixamorig:Hips
{
	OFFSET -0.000008 104.274872 1.554316
	CHANNELS 6 Xposition Yposition Zposition Xrotation Yrotation Zrotation
	JOINT mixamorig:Spine
	{
		OFFSET -0.000005 10.181595 0.131519
		CHANNELS 6 Xposition Yposition Zposition Xrotation Yrotation Zrotation
		JOINT mixamorig:Spine1
		{
			OFFSET -0.000000 9.893959 -1.470707
			CHANNELS 6 Xposition Yposition Zposition Xrotation Yrotation Zrotation
			JOINT mixamorig:Spine2
			{
				OFFSET -0.000000 9.220757 -1.370641
				CHANNELS 6 Xposition Yposition Zposition Xrotation Yrotation Zrotation
				JOINT mixamorig:Neck
				{
					OFFSET 0.000001 16.740417 -2.049036
					CHANNELS 6 Xposition Yposition Zposition Xrotation Yrotation Zrotation
					JOINT mixamorig:Head
					{
						OFFSET 0.000000 9.617874 1.685006
						CHANNELS 6 Xposition Yposition Zposition Xrotation Yrotation Zrotation
						JOINT mixamorig:HeadTop_End
						{
							OFFSET 0.000002 22.037354 7.501101
							CHANNELS 6 Xposition Yposition Zposition Xrotation Yrotation Zrotation
							End Site
							{
								OFFSET 0.000168 2310.654297 -282.823242
							}
						}
					}
				}
				JOINT mixamorig:RightShoulder
				{
					OFFSET -4.569970 11.014908 -2.160885
					CHANNELS 6 Xposition Yposition Zposition Xrotation Yrotation Zrotation
					JOINT mixamorig:RightArm
					{
						OFFSET -10.592851 -0.524811 -2.232101
						CHANNELS 6 Xposition Yposition Zposition Xrotation Yrotation Zrotation
						JOINT mixamorig:RightForeArm
						{
							OFFSET -27.841511 0.000031 -0.000004
							CHANNELS 6 Xposition Yposition Zposition Xrotation Yrotation Zrotation
							JOINT mixamorig:RightHand
							{
								OFFSET -28.328831 -0.000015 0.000015
								CHANNELS 6 Xposition Yposition Zposition Xrotation Yrotation Zrotation
								JOINT mixamorig:RightHandThumb1
								{
									OFFSET -2.464806 -1.573990 2.681852
									CHANNELS 6 Xposition Yposition Zposition Xrotation Yrotation Zrotation
									JOINT mixamorig:RightHandThumb2
									{
										OFFSET -3.215179 -1.872803 1.924282
										CHANNELS 6 Xposition Yposition Zposition Xrotation Yrotation Zrotation
										JOINT mixamorig:RightHandThumb3
										{
											OFFSET -2.654831 -1.527969 1.512609
											CHANNELS 6 Xposition Yposition Zposition Xrotation Yrotation Zrotation
											JOINT mixamorig:RightHandThumb4
											{
												OFFSET -2.018814 -1.152008 1.108052
												CHANNELS 6 Xposition Yposition Zposition Xrotation Yrotation Zrotation
												End Site
												{
													OFFSET -188.809540 -114.533607 132.431396
												}
											}
										}
									}
								}
								JOINT mixamorig:RightHandIndex1
								{
									OFFSET -9.108284 -0.517868 2.259835
									CHANNELS 6 Xposition Yposition Zposition Xrotation Yrotation Zrotation
									JOINT mixamorig:RightHandIndex2
									{
										OFFSET -3.699989 0.000000 0.001215
										CHANNELS 6 Xposition Yposition Zposition Xrotation Yrotation Zrotation
										JOINT mixamorig:RightHandIndex3
										{
											OFFSET -2.850006 0.000031 -0.000522
											CHANNELS 6 Xposition Yposition Zposition Xrotation Yrotation Zrotation
											JOINT mixamorig:RightHandIndex4
											{
												OFFSET -2.772186 -0.000015 -0.000020
												CHANNELS 6 Xposition Yposition Zposition Xrotation Yrotation Zrotation
												End Site
												{
													OFFSET -277.218445 0.000000 -0.050231
												}
											}
										}
									}
								}
								JOINT mixamorig:RightHandMiddle1
								{
									OFFSET -9.532516 -0.000031 -0.000023
									CHANNELS 6 Xposition Yposition Zposition Xrotation Yrotation Zrotation
									JOINT mixamorig:RightHandMiddle2
									{
										OFFSET -3.700005 -0.000015 0.003713
										CHANNELS 6 Xposition Yposition Zposition Xrotation Yrotation Zrotation
										JOINT mixamorig:RightHandMiddle3
										{
											OFFSET -2.949974 0.000015 -0.002054
											CHANNELS 6 Xposition Yposition Zposition Xrotation Yrotation Zrotation
											JOINT mixamorig:RightHandMiddle4
											{
												OFFSET -2.946640 0.000000 -0.000156
												CHANNELS 6 Xposition Yposition Zposition Xrotation Yrotation Zrotation
												End Site
												{
													OFFSET -294.664337 0.000000 -0.113670
												}
											}
										}
									}
								}
								JOINT mixamorig:RightHandRing1
								{
									OFFSET -9.103600 -0.043076 -1.865134
									CHANNELS 6 Xposition Yposition Zposition Xrotation Yrotation Zrotation
									JOINT mixamorig:RightHandRing2
									{
										OFFSET -3.379288 0.000000 -0.001055
										CHANNELS 6 Xposition Yposition Zposition Xrotation Yrotation Zrotation
										JOINT mixamorig:RightHandRing3
										{
											OFFSET -2.889687 -0.000015 0.000379
											CHANNELS 6 Xposition Yposition Zposition Xrotation Yrotation Zrotation
											JOINT mixamorig:RightHandRing4
											{
												OFFSET -2.638809 -0.000015 0.000941
												CHANNELS 6 Xposition Yposition Zposition Xrotation Yrotation Zrotation
												End Site
												{
													OFFSET -263.880371 0.000000 0.516020
												}
											}
										}
									}
								}
								JOINT mixamorig:RightHandPinky1
								{
									OFFSET -8.076683 -0.486710 -3.806280
									CHANNELS 6 Xposition Yposition Zposition Xrotation Yrotation Zrotation
									JOINT mixamorig:RightHandPinky2
									{
										OFFSET -3.600014 -0.000015 -0.003747
										CHANNELS 6 Xposition Yposition Zposition Xrotation Yrotation Zrotation
										JOINT mixamorig:RightHandPinky3
										{
											OFFSET -2.099983 0.000000 -0.005739
											CHANNELS 6 Xposition Yposition Zposition Xrotation Yrotation Zrotation
											JOINT mixamorig:RightHandPinky4
											{
												OFFSET -2.115768 -0.000031 -0.003680
												CHANNELS 6 Xposition Yposition Zposition Xrotation Yrotation Zrotation
												End Site
												{
													OFFSET -211.577087 0.000000 -0.350686
												}
											}
										}
									}
								}
							}
						}
					}
				}
				JOINT mixamorig:LeftShoulder
				{
					OFFSET 4.570447 11.014725 -2.160855
					CHANNELS 6 Xposition Yposition Zposition Xrotation Yrotation Zrotation
					JOINT mixamorig:LeftArm
					{
						OFFSET 10.592371 -0.524597 -2.232119
						CHANNELS 6 Xposition Yposition Zposition Xrotation Yrotation Zrotation
						JOINT mixamorig:LeftForeArm
						{
							OFFSET 27.841532 -0.000031 0.000026
							CHANNELS 6 Xposition Yposition Zposition Xrotation Yrotation Zrotation
							JOINT mixamorig:LeftHand
							{
								OFFSET 28.328846 -0.000061 0.000022
								CHANNELS 6 Xposition Yposition Zposition Xrotation Yrotation Zrotation
								JOINT mixamorig:LeftHandThumb1
								{
									OFFSET 2.466141 -1.576172 2.681732
									CHANNELS 6 Xposition Yposition Zposition Xrotation Yrotation Zrotation
									JOINT mixamorig:LeftHandThumb2
									{
										OFFSET 3.217812 -1.872070 1.916482
										CHANNELS 6 Xposition Yposition Zposition Xrotation Yrotation Zrotation
										JOINT mixamorig:LeftHandThumb3
										{
											OFFSET 2.656029 -1.528778 1.514513
											CHANNELS 6 Xposition Yposition Zposition Xrotation Yrotation Zrotation
											JOINT mixamorig:LeftHandThumb4
											{
												OFFSET 2.020889 -1.154053 1.115139
												CHANNELS 6 Xposition Yposition Zposition Xrotation Yrotation Zrotation
												End Site
												{
													OFFSET 190.885437 -115.081749 130.048782
												}
											}
										}
									}
								}
								JOINT mixamorig:LeftHandIndex1
								{
									OFFSET 9.109314 -0.518021 2.259871
									CHANNELS 6 Xposition Yposition Zposition Xrotation Yrotation Zrotation
									JOINT mixamorig:LeftHandIndex2
									{
										OFFSET 3.699989 0.000000 -0.000322
										CHANNELS 6 Xposition Yposition Zposition Xrotation Yrotation Zrotation
										JOINT mixamorig:LeftHandIndex3
										{
											OFFSET 2.850006 0.000000 0.000352
											CHANNELS 6 Xposition Yposition Zposition Xrotation Yrotation Zrotation
											JOINT mixamorig:LeftHandIndex4
											{
												OFFSET 2.774864 -0.000031 -0.000027
												CHANNELS 6 Xposition Yposition Zposition Xrotation Yrotation Zrotation
												End Site
												{
													OFFSET 277.486267 0.000000 -0.009857
												}
											}
										}
									}
								}
								JOINT mixamorig:LeftHandMiddle1
								{
									OFFSET 9.533394 0.000061 0.000044
									CHANNELS 6 Xposition Yposition Zposition Xrotation Yrotation Zrotation
									JOINT mixamorig:LeftHandMiddle2
									{
										OFFSET 3.699989 -0.000015 -0.000231
										CHANNELS 6 Xposition Yposition Zposition Xrotation Yrotation Zrotation
										JOINT mixamorig:LeftHandMiddle3
										{
											OFFSET 2.949997 -0.000015 -0.000059
											CHANNELS 6 Xposition Yposition Zposition Xrotation Yrotation Zrotation
											JOINT mixamorig:LeftHandMiddle4
											{
												OFFSET 2.952896 0.000031 0.000063
												CHANNELS 6 Xposition Yposition Zposition Xrotation Yrotation Zrotation
												End Site
												{
													OFFSET 295.289337 0.000000 0.022810
												}
											}
										}
									}
								}
								JOINT mixamorig:LeftHandRing1
								{
									OFFSET 9.104523 -0.042999 -1.865074
									CHANNELS 6 Xposition Yposition Zposition Xrotation Yrotation Zrotation
									JOINT mixamorig:LeftHandRing2
									{
										OFFSET 3.150009 -0.000031 0.000043
										CHANNELS 6 Xposition Yposition Zposition Xrotation Yrotation Zrotation
										JOINT mixamorig:LeftHandRing3
										{
											OFFSET 2.949982 -0.000015 0.000040
											CHANNELS 6 Xposition Yposition Zposition Xrotation Yrotation Zrotation
											JOINT mixamorig:LeftHandRing4
											{
												OFFSET 2.644348 0.000000 0.000057
												CHANNELS 6 Xposition Yposition Zposition Xrotation Yrotation Zrotation
												End Site
												{
													OFFSET 264.434631 0.000000 0.012105
												}
											}
										}
									}
								}
								JOINT mixamorig:LeftHandPinky1
								{
									OFFSET 8.077789 -0.486847 -3.806259
									CHANNELS 6 Xposition Yposition Zposition Xrotation Yrotation Zrotation
									JOINT mixamorig:LeftHandPinky2
									{
										OFFSET 3.599953 0.000031 0.014727
										CHANNELS 6 Xposition Yposition Zposition Xrotation Yrotation Zrotation
										JOINT mixamorig:LeftHandPinky3
										{
											OFFSET 2.100021 0.000015 0.007705
											CHANNELS 6 Xposition Yposition Zposition Xrotation Yrotation Zrotation
											JOINT mixamorig:LeftHandPinky4
											{
												OFFSET 2.125504 0.000031 0.007517
												CHANNELS 6 Xposition Yposition Zposition Xrotation Yrotation Zrotation
												End Site
												{
													OFFSET 212.550781 0.000000 0.625752
												}
											}
										}
									}
								}
							}
						}
					}
				}
			}
		}
	}
	JOINT mixamorig:RightUpLeg
	{
		OFFSET -8.207787 -6.751648 -1.599560
		CHANNELS 6 Xposition Yposition Zposition Xrotation Yrotation Zrotation
		JOINT mixamorig:RightLeg
		{
			OFFSET -0.000002 -44.370117 0.345942
			CHANNELS 6 Xposition Yposition Zposition Xrotation Yrotation Zrotation
			JOINT mixamorig:RightFoot
			{
				OFFSET 0.000003 -44.423679 -3.043532
				CHANNELS 6 Xposition Yposition Zposition Xrotation Yrotation Zrotation
				JOINT mixamorig:RightToeBase
				{
					OFFSET -0.000002 -8.728671 10.710558
					CHANNELS 6 Xposition Yposition Zposition Xrotation Yrotation Zrotation
					JOINT mixamorig:RightToe_End
					{
						OFFSET -0.000001 -0.000679 9.278119
						CHANNELS 6 Xposition Yposition Zposition Xrotation Yrotation Zrotation
						End Site
						{
							OFFSET 0.000000 -0.067690 927.812134
						}
					}
				}
			}
		}
	}
	JOINT mixamorig:LeftUpLeg
	{
		OFFSET 8.207793 -6.751686 -1.599556
		CHANNELS 6 Xposition Yposition Zposition Xrotation Yrotation Zrotation
		JOINT mixamorig:LeftLeg
		{
			OFFSET -0.000004 -44.370014 0.346954
			CHANNELS 6 Xposition Yposition Zposition Xrotation Yrotation Zrotation
			JOINT mixamorig:LeftFoot
			{
				OFFSET -0.000001 -44.423672 -3.044401
				CHANNELS 6 Xposition Yposition Zposition Xrotation Yrotation Zrotation
				JOINT mixamorig:LeftToeBase
				{
					OFFSET -0.000002 -8.728669 10.710558
					CHANNELS 6 Xposition Yposition Zposition Xrotation Yrotation Zrotation
					JOINT mixamorig:LeftToe_End
					{
						OFFSET -0.000003 -0.000679 9.278133
						CHANNELS 6 Xposition Yposition Zposition Xrotation Yrotation Zrotation
						End Site
						{
							OFFSET 0.000000 -0.068021 927.813477
						}
					}
				}
			}
		}
	}
}
MOTION
Frames: 3
Frame Time: 0.033333
0.000006 104.270477 1.554256 0.000010 0.000003 -0.000113 -0.000005 10.181587 0.131522 0.000001 -0.000003 0.000084 -0.000000 9.893967 -1.470711 0.000001 0.000000 -0.000000 -0.000000 9.220802 -1.370642 0.000000 -0.000000 -0.000000 0.000001 16.740433 -2.049030 0.000000 -0.000000 -0.000000 0.000000 9.617859 1.685014 0.000000 0.000000 0.000000 0.000002 22.037384 7.501101 0.000000 -0.000000 0.000000 -4.569968 11.014880 -2.160881 0.000008 0.000001 -0.000038 -10.592871 -0.524682 -2.232016 71.956815 9.500258 -6.904361 -27.841551 0.000036 0.000526 116.908632 58.369383 -84.592514 -28.328835 0.000006 0.000024 -0.000321 -0.000044 0.000007 -2.464515 -1.573636 2.682300 -53.743094 173.067021 -36.138767 -3.215283 -1.872677 1.924711 159.772454 26.219623 -25.628034 -2.654934 -1.527900 1.513104 147.133299 25.293973 -52.980353 -2.018827 -1.151997 1.108072 -0.000006 -0.000006 0.000002 -9.108397 -0.517539 2.260079 89.472206 16.844566 -16.738808 -3.700093 0.000302 0.001459 85.954413 15.321229 -14.264571 -2.850077 0.000362 -0.000298 84.925302 12.617461 -11.553366 -2.772165 0.000001 -0.000019 0.000003 -0.000004 -0.000002 -9.532586 0.000278 0.000176 80.992486 13.550207 -11.705300 -3.700062 0.000315 0.003915 82.209304 11.724714 -10.155720 -2.950074 0.000314 -0.001894 81.620699 11.585539 -10.006534 -2.946632 -0.000000 -0.000161 -0.000001 0.000000 0.000003 -9.103688 -0.042743 -1.864933 78.920514 14.587855 -11.993044 -3.379317 0.000312 -0.000881 80.821492 8.946312 -7.635748 -2.889751 0.000334 0.000564 82.114139 6.542606 -5.739863 -2.638824 -0.000001 0.000936 0.000000 -0.000003 -0.000000 -8.076731 -0.486375 -3.806106 72.084471 14.348750 -10.358251 -3.600019 0.000259 -0.003590 74.239109 7.082138 -5.097343 -2.100013 0.000314 -0.005578 73.386783 4.455838 -3.159879 -2.115779 -0.000055 -0.003677 -0.000000 0.000000 -0.000002 4.570446 11.014691 -2.160851 -0.000018 0.000010 -0.000021 10.592366 -0.524515 -2.232305 71.811386 2.409597 -1.744665 27.841839 0.000158 -0.000200 107.514711 -60.125206 76.589916 28.328829 -0.000028 0.000020 0.000019 -0.000089 0.000001 2.466016 -1.576153 2.681918 -38.492740 166.423939 -14.981699 3.217869 -1.871845 1.916392 155.734283 -24.755524 35.895680 2.656107 -1.528651 1.514464 141.182633 -27.366657 48.505770 2.020891 -1.154083 1.115145 0.000004 0.000007 0.000006 9.109371 -0.517921 2.259741 65.904912 -19.969194 13.012244 3.700046 0.000079 -0.000445 60.148791 -22.099371 12.914979 2.850046 0.000093 0.000227 56.266289 -15.807400 8.489806 2.774873 -0.000033 -0.000028 0.000001 -0.000000 0.000003 9.533445 0.000149 -0.000085 61.682632 -16.090580 9.642907 3.700058 0.000091 -0.000349 63.976681 -19.722578 12.391111 2.950062 0.000090 -0.000174 63.478139 -20.396864 12.701347 2.952873 -0.000034 0.000065 0.000001 0.000007 0.000003 9.104566 -0.042922 -1.865221 61.468164 -14.579100 8.699683 3.150046 0.000103 -0.000074 66.466804 -17.581254 11.572553 2.950012 0.000096 -0.000063 65.743897 -17.615295 11.437276 2.644327 0.000013 0.000053 0.000001 -0.000001 0.000003 8.077819 -0.486772 -3.806390 59.182722 -15.312697 9.075168 3.600012 0.000131 0.014569 59.307086 -14.030254 8.318860 2.100019 0.000117 0.007559 60.866227 -13.473195 8.237130 2.125512 -0.000034 0.007514 0.000001 0.000001 0.000003 -8.207786 -6.751667 -1.599560 -0.077001 -0.000003 0.000080 -0.000002 -44.370110 0.345938 0.153719 -0.000000 -0.000000 0.000000 -44.423679 -3.043532 -0.076700 0.000000 -0.000002 -0.000006 -8.728667 10.710559 -0.000009 -0.000000 -0.000000 -0.000001 -0.000679 9.278123 0.000000 -0.000000 -0.000000 8.207792 -6.751710 -1.599556 -0.074518 -0.000003 0.000081 -0.000002 -44.370014 0.346960 0.148822 0.000002 0.000000 -0.000001 -44.423664 -3.044403 -0.074314 0.000000 -0.000002 -0.000004 -8.728671 10.710558 0.000007 -0.000000 -0.000000 0.000000 -0.000680 9.278137 -0.000000 0.000000 -0.000001 
0.000006 104.270477 1.554256 0.000010 0.000003 -0.000113 -0.000005 10.181587 0.131522 0.000001 -0.000003 0.000084 -0.000000 9.893967 -1.470711 0.000001 0.000000 -0.000000 -0.000000 9.220802 -1.370642 0.000000 -0.000000 -0.000000 0.000001 16.740433 -2.049030 0.000000 -0.000000 -0.000000 0.000000 9.617859 1.685014 0.000000 0.000000 0.000000 0.000002 22.037384 7.501101 0.000000 -0.000000 0.000000 -4.569968 11.014880 -2.160881 0.000008 0.000001 -0.000038 -10.592866 -0.524674 -2.232029 71.548970 6.816911 -4.914697 -27.841557 0.000021 0.000516 118.331224 56.804843 -84.345917 -28.328814 0.000005 0.000026 -0.000322 -0.000043 0.000007 -2.464531 -1.573633 2.682275 -54.053509 172.634384 -38.095565 -3.215280 -1.872636 1.924700 155.081590 27.553203 -20.771691 -2.654959 -1.527874 1.513085 141.040101 27.736191 -44.848573 -2.018823 -1.151979 1.108066 -0.000001 -0.000001 0.000004 -9.108387 -0.517542 2.260071 87.281034 14.721383 -14.089738 -3.700061 0.000322 0.001460 84.263702 12.808731 -11.574042 -2.850074 0.000364 -0.000324 82.381398 10.044159 -8.794581 -2.772155 0.000001 -0.000021 -0.000001 0.000000 0.000003 -9.532577 0.000286 0.000179 80.785230 12.673991 -10.913389 -3.700060 0.000335 0.003909 81.084044 10.897588 -9.248585 -2.950072 0.000323 -0.001875 82.458722 10.982586 -9.625112 -2.946630 0.000014 -0.000159 0.000001 -0.000001 0.000002 -9.103702 -0.042750 -1.864950 76.748534 15.037138 -11.897717 -3.379321 0.000313 -0.000872 80.028630 9.872778 -8.309172 -2.889750 0.000339 0.000590 85.169590 6.951790 -6.432206 -2.638809 -0.000016 0.000942 -0.000001 0.000003 -0.000000 -8.076740 -0.486382 -3.806095 69.490543 14.851930 -10.226732 -3.600035 0.000255 -0.003606 71.764825 7.847589 -5.424103 -2.100013 0.000307 -0.005564 75.922689 5.204109 -3.890635 -2.115765 -0.000041 -0.003673 -0.000001 -0.000000 -0.000004 4.570446 11.014691 -2.160851 -0.000018 0.000010 -0.000021 10.592355 -0.524549 -2.232253 72.453923 18.472366 -13.587444 27.841848 0.000145 -0.000233 106.970236 -61.155212 77.185673 28.328833 -0.000030 0.000015 0.000020 -0.000090 -0.000000 2.466193 -1.575832 2.681771 15.282652 202.404801 -155.826026 3.217873 -1.871943 1.916482 157.431858 -16.039605 71.949151 2.656079 -1.528719 1.514514 138.061332 -27.712330 68.746032 2.020898 -1.154063 1.115139 0.000001 0.000005 0.000006 9.109373 -0.517944 2.259763 63.936369 -23.835011 14.998534 3.700029 0.000091 -0.000441 61.891213 -17.450957 10.526178 2.850066 0.000127 0.000208 60.980762 -13.960031 8.245758 2.774873 -0.000032 -0.000026 0.000002 -0.000001 -0.000001 9.533453 0.000124 -0.000074 61.448418 -21.027110 12.582460 3.700021 0.000092 -0.000376 62.171462 -14.738039 8.915102 2.950037 0.000103 -0.000175 60.755707 -13.409337 7.885662 2.952863 -0.000019 0.000062 0.000001 -0.000002 -0.000002 9.104588 -0.042924 -1.865193 63.602885 -19.746046 12.320036 3.150040 0.000128 -0.000077 64.941384 -14.438916 9.218448 2.950009 0.000108 -0.000071 64.624695 -11.448366 7.256426 2.644325 0.000035 0.000056 0.000001 0.000001 -0.000000 8.077830 -0.486772 -3.806391 61.115993 -20.895524 12.807416 3.600002 0.000114 0.014589 57.770047 -17.358446 9.937039 2.100044 0.000121 0.007558 60.577494 -13.339234 8.110514 2.125501 -0.000003 0.007520 -0.000000 -0.000002 -0.000002 -8.207786 -6.751667 -1.599560 -0.077001 -0.000003 0.000080 -0.000002 -44.370110 0.345938 0.153719 -0.000000 -0.000000 0.000000 -44.423679 -3.043532 -0.076700 0.000000 -0.000002 -0.000006 -8.728667 10.710559 -0.000009 -0.000000 -0.000000 -0.000001 -0.000679 9.278123 0.000000 -0.000000 -0.000000 8.207792 -6.751710 -1.599556 -0.074518 -0.000003 0.000081 -0.000002 -44.370014 0.346960 0.148822 0.000002 0.000000 -0.000001 -44.423664 -3.044403 -0.074314 0.000000 -0.000002 -0.000004 -8.728671 10.710558 0.000007 -0.000000 -0.000000 0.000000 -0.000680 9.278137 -0.000000 0.000000 -0.000001 
0.000006 104.270477 1.554256 0.000010 0.000003 -0.000113 -0.000005 10.181587 0.131522 0.000001 -0.000003 0.000084 -0.000000 9.893967 -1.470711 0.000001 0.000000 -0.000000 -0.000000 9.220802 -1.370642 0.000000 -0.000000 -0.000000 0.000001 16.740433 -2.049030 0.000000 -0.000000 -0.000000 0.000000 9.617859 1.685014 0.000000 0.000000 0.000000 0.000002 22.037384 7.501101 0.000000 -0.000000 0.000000 -4.569968 11.014880 -2.160881 0.000008 0.000001 -0.000038 -10.592865 -0.524671 -2.232029 71.264152 5.778680 -4.143744 -27.841549 0.000031 0.000533 119.193809 58.369089 -87.174900 -28.328819 0.000005 0.000028 -0.000320 -0.000045 0.000006 -2.464554 -1.573633 2.682274 -54.172146 169.147804 -43.113667 -3.215267 -1.872657 1.924717 154.541254 25.941456 -30.520584 -2.654959 -1.527888 1.513080 142.038305 27.504376 -44.352554 -2.018822 -1.152033 1.108060 -0.000000 -0.000003 0.000000 -9.108385 -0.517548 2.260068 88.532482 15.458077 -15.116863 -3.700057 0.000338 0.001452 86.094808 12.709178 -11.855509 -2.850069 0.000364 -0.000325 83.870809 9.628608 -8.653122 -2.772156 -0.000018 -0.000019 -0.000002 -0.000000 -0.000000 -9.532582 0.000267 0.000172 80.945432 13.389053 -11.557397 -3.700061 0.000327 0.003905 82.147894 10.436422 -9.020752 -2.950057 0.000338 -0.001874 83.250895 10.317942 -9.167874 -2.946635 0.000014 -0.000158 0.000001 0.000000 0.000001 -9.103688 -0.042756 -1.864951 77.634000 14.817928 -11.909097 -3.379332 0.000313 -0.000854 81.846211 10.006245 -8.695378 -2.889752 0.000338 0.000597 86.133398 7.105909 -6.685614 -2.638811 -0.000001 0.000942 0.000000 -0.000002 0.000001 -8.076753 -0.486388 -3.806107 70.831165 14.837650 -10.472886 -3.600061 0.000249 -0.003604 73.063831 9.014921 -6.417224 -2.100003 0.000301 -0.005545 77.349727 5.962282 -4.596932 -2.115774 -0.000026 -0.003681 -0.000001 0.000001 -0.000004 4.570446 11.014691 -2.160851 -0.000018 0.000010 -0.000021 10.592354 -0.524554 -2.232276 73.438795 18.501360 -13.853462 27.841839 0.000128 -0.000223 105.955365 -61.450064 76.482532 28.328838 -0.000027 0.000020 0.000020 -0.000086 0.000000 2.466220 -1.575863 2.681772 13.629233 200.889538 -152.830073 3.217882 -1.871952 1.916486 154.828886 -17.524449 71.990071 2.656091 -1.528691 1.514513 137.008909 -28.243594 67.099246 2.020884 -1.154069 1.115146 0.000004 0.000004 0.000002 9.109385 -0.517929 2.259759 67.306576 -23.687099 15.886006 3.700027 0.000098 -0.000446 65.464973 -16.873272 10.903821 2.850049 0.000125 0.000226 64.964094 -13.342111 8.516003 2.774872 -0.000006 -0.000029 0.000000 0.000000 0.000003 9.533460 0.000129 -0.000066 62.949701 -21.378034 13.177073 3.700039 0.000108 -0.000377 64.318252 -14.423054 9.095572 2.950031 0.000089 -0.000187 63.847324 -12.631304 7.890961 2.952881 -0.000049 0.000066 -0.000000 0.000000 -0.000003 9.104602 -0.042912 -1.865203 65.282900 -19.783570 12.748219 3.150049 0.000129 -0.000084 66.888760 -14.673717 9.723055 2.950014 0.000119 -0.000074 66.757559 -11.109189 7.333426 2.644324 0.000010 0.000056 0.000001 0.000001 0.000000 8.077842 -0.486774 -3.806395 63.465264 -20.866926 13.388494 3.599986 0.000105 0.014589 60.672721 -18.035316 10.939930 2.100017 0.000127 0.007575 63.219958 -13.355656 8.553006 2.125502 0.000000 0.007509 0.000001 -0.000001 0.000001 -8.207786 -6.751667 -1.599560 -0.077001 -0.000003 0.000080 -0.000002 -44.370110 0.345938 0.153719 -0.000000 -0.000000 0.000000 -44.423679 -3.043532 -0.076700 0.000000 -0.000002 -0.000006 -8.728667 10.710559 -0.000009 -0.000000 -0.000000 -0.000001 -0.000679 9.278123 0.000000 -0.000000 -0.000000 8.207792 -6.751710 -1.599556 -0.074518 -0.000003 0.000081 -0.000002 -44.370014 0.346960 0.148822 0.000002 0.000000 -0.000001 -44.423664 -3.044403 -0.074314 0.000000 -0.000002 -0.000004 -8.728671 10.710558 0.000007 -0.000000 -0.000000 0.000000 -0.000680 9.278137 -0.000000 0.000000 -0.000001 
